<svg version="1.1" id="Layer_1" xmlns="http://www.w3.org/2000/svg" xmlns:xlink="http://www.w3.org/1999/xlink" x="0px" y="0px" viewBox="0 0 222 62" enable-background="new 0 0 222 62" xml:space="preserve">
<g>
	<path fill-rule="evenodd" clip-rule="evenodd" fill="#CC0033" d="M65.9592,43.3401l1.5426-0.4632V16.9368   c0-6.2782,0-6.5364,2.0053-6.7423l1.852-0.1537V8.9347H58.863v1.1061l1.8491,0.1537c2.0076,0.2059,2.0076,0.4641,2.0076,6.7423   v20.8961c-0.7711,0.9272-3.9597,4.1168-9.3093,4.1168c-7.9702,0-9.2049-4.8884-9.2049-12.2486V16.9368   c0-6.2797,0-6.5369,2.0058-6.7423l1.8515-0.1537V8.9347H35.5644v1.1061l1.8525,0.1537c2.0048,0.2055,2.0048,0.4626,2.0048,6.7423   v13.5886c0,6.9981,0.8745,13.1226,11.5205,13.1226c6.841,0,11.1091-3.2408,11.8285-3.2408   c0.7711-0.0015,1.1834,0.7198,1.9018,1.4396L65.9592,43.3401z"/>
	<path fill-rule="evenodd" clip-rule="evenodd" fill="#CC0033" d="M79.7359,42.8769h14.2456v-1.1085l-1.852-0.1528   c-2.8793-0.2064-2.8793-0.4622-2.8793-6.7419V10.3743h2.6733c7.2519,0,7.3543,0.772,8.4856,6.7419h1.2332   c0-0.2064-0.2557-7.0498-0.4617-8.1815H72.5348c-0.2064,1.1317-0.4622,7.9751-0.4622,8.1815h1.2337   c1.1302-5.9699,1.2332-6.7419,8.4856-6.7419h2.6757v24.4995c0,6.2797,0,6.5355-2.8285,6.7419l-1.9033,0.1528V42.8769z"/>
	<path fill-rule="evenodd" clip-rule="evenodd" fill="#CC0033" d="M133.3033,36.107c0-5.0063,0-5.263,0.977-5.4705l1.852-0.1546   v-1.1056h-13.0636v1.1056l1.8525,0.1546c3.5972,0.2074,3.5972,0.4641,3.5972,6.7612v3.8834   c-1.7988,0.4627-4.1628,0.6686-6.0148,0.6686c-10.0795,0-14.5535-8.1472-14.5535-16.918c0-9.6168,5.2969-15.1714,13.7288-15.1714   c8.795,0,9.4631,6.2739,9.9789,8.3319l1.3889-0.3089c-0.2267-2.537-0.4984-5.4183-0.8237-7.6121   c-1.3367-0.8218-5.2447-2.1092-10.4903-2.1092c-8.1269,0-19.1823,4.115-19.1823,17.8461c0,13.1062,9.2566,17.6397,19.5942,17.6397   c5.5018,0,9.4379-1.4792,11.258-2.0502C133.4024,41.5978,133.3033,37.6555,133.3033,36.107z"/>
	<path fill-rule="evenodd" clip-rule="evenodd" fill="#CC0033" d="M139.2934,42.8769h23.5549   c0.6724-2.7835,1.2458-5.3491,1.6959-8.5382l-1.2835-0.2059c-1.0311,4.2188-1.5436,7.304-9.7352,7.304   c-1.8453,0-3.7432-0.3084-5.5903-0.6686V25.9566h4.5659c4.0018,0,4.9261,0.0517,5.2321,2.1604l0.2601,1.7462h1.3565v-9.2542   h-1.3565l-0.2601,1.7485c-0.306,2.1082-1.2303,2.159-5.2321,2.159h-4.5659V10.3743h4.258c7.2601,0,7.363,0.7711,8.4962,6.2749   l1.2342-0.2069c0-0.4617-0.2591-6.3759-0.465-7.5076h-22.1651v1.1061l1.8525,0.1537c2.0048,0.2059,2.0048,0.4641,2.0048,6.7482   v17.9201c0,6.2898,0,6.5465-2.0048,6.753l-1.8525,0.1528V42.8769z"/>
	<path fill-rule="evenodd" clip-rule="evenodd" fill="#CC0033" d="M168.5745,42.8769h12.4458v-1.1085l-1.8525-0.1528   c-1.9516-0.2064-1.9516-0.4631-1.9516-6.7486v-6.8028h1.9023c1.0805,0,2.3635,0,3.1887,0.671   c0.6681,0.5666,1.8481,2.5254,3.1843,5.0499l2.0574,3.9674c1.5431,2.832,3.9071,5.1243,7.3017,5.1243h3.9602v-1.1085   c-1.1331,0-2.0574-0.2026-2.5728-0.512c-1.284-0.7222-3.5484-3.762-5.7054-7.627c-1.3903-2.4728-3.0901-5.7716-3.8616-7.2113   c2.83-1.3377,7.0986-4.171,7.0986-8.9608c0-7.8189-6.8917-8.5228-11.7719-8.5228h-13.4233v1.1061l1.852,0.1537   c2.0048,0.2059,2.0048,0.4641,2.0048,6.7477v17.9249c0,6.2855,0,6.5422-2.0048,6.7486l-1.852,0.1528V42.8769z M177.2162,11.0424   c1.0278-0.2055,2.1087-0.4109,3.1877-0.4109c4.011,0,7.9669,1.8516,7.9669,7.8687c0,5.8103-3.9061,8.1245-8.225,8.1245h-2.9296   V11.0424z"/>
	<path fill-rule="evenodd" clip-rule="evenodd" fill="#CC0033" d="M210.0166,21.79c-2.7778-1.6437-4.988-3.2898-4.988-6.3242   c0-3.4454,2.6192-5.6054,5.6058-5.6054c5.8089,0,6.6326,4.4751,7.145,7.045h1.2879c-0.1209-1.4972-0.2485-5.2679-0.5163-7.0982   c-1.3362-0.8209-3.9061-1.6451-7.0947-1.6451c-5.4511,0-10.6973,2.624-10.6973,8.8984c0,3.8549,2.7255,7.0436,5.6561,8.6393   l3.2921,1.7993c4.0124,1.7988,7.1489,4.3716,7.1489,8.1259c0,4.0105-2.624,6.3247-6.1714,6.3247   c-7.0464,0-8.9482-6.1182-9.5138-9.8222l-1.6456,0.4119c0.582,3.5266,1.1554,7.1088,1.6456,9.0517   c1.5934,0.9775,4.0598,2.0569,8.0742,2.0569c5.4492,0,11.8758-2.6757,11.8758-9.6163c0-6.1738-4.2126-8.3318-8.2791-10.646   L210.0166,21.79z"/>
	<path fill-rule="evenodd" clip-rule="evenodd" fill="#CC0033" d="M23.7417,23.2823c0.5854,3.2598,5.1267,11.6298,6.8685,14.7406   c3.9394,7.2644,14.03,21.9576,21.5825,21.4839l0.8711,0.0039l-0.0092,1.1926l-1.3236,0.0454   C41.058,61.1649,31.522,49.2761,25.9732,39.7429c-2.2561-3.8776-4.4427-8.3782-6.3938-12.4168   c-0.483-1.0437-1.0945-1.7079-1.778-2.1247c-1.0524-0.5569-2.4249-0.5487-3.5585-0.5487c-0.6589-0.0058-2.6158,0-3.6339,0   l-0.0039,8.5682c0,1.5755-0.1199,5.4782,0.3075,7.0121c0.3374,1.2095,1.0689,1.3662,2.2808,1.4938L15.2837,41.9v0.9698H0.7055V41.9   l2.0927-0.1731c1.24-0.1276,1.9898-0.2804,2.3369-1.4933c0.4346-1.5194,0.3162-5.4468,0.3162-7.0126V11.1773   c0-1.562,0.1184-5.4903-0.3162-7.0092C4.788,2.9557,4.0382,2.8029,2.7982,2.6748L0.7055,2.5027V1.5315l9.9397,0.0015   c8.7486,0.0019,20.5572-1.2463,20.5572,11.0574c0,4.9783-3.3849,8.2206-7.5225,10.2539   C23.6963,23.0463,23.7417,23.2823,23.7417,23.2823z M10.6089,23.2915c1.575,0.0827,3.2655-0.0454,4.8411-0.0454   c6.0887,0,9.8097-3.2675,9.8097-9.3519c0-6.6181-3.7746-10.6794-10.5228-10.6794c-1.3913,0-2.7613,0.2693-4.1197,0.54   L10.6089,23.2915z"/>
</g>
</svg>